<?xml version="1.0" encoding="utf-8"?>
<!-- Generator: Adobe Illustrator 27.0.0, SVG Export Plug-In . SVG Version: 6.00 Build 0)  -->
<svg version="1.1" id="Layer_1" xmlns="http://www.w3.org/2000/svg" xmlns:xlink="http://www.w3.org/1999/xlink" x="0px" y="0px"
	 viewBox="0 0 833.1 297.3" style="enable-background:new 0 0 833.1 297.3;" xml:space="preserve">
<style type="text/css">
	.st0{fill:#020203;}
	.st1{fill:#F07E25;}
	.st2{fill:#FFFFFF;}
	.st3{fill:#ED6B37;}
</style>
<g>
	<ellipse class="st0" cx="417.7" cy="149.5" rx="407" ry="136.3"/>
	<path class="st1" d="M417.7,290c-55.1,0-108.6-3.6-159-10.8c-48.7-6.9-92.5-16.8-130.1-29.4C49.8,223.5,6.5,187.8,6.5,149.5
		s43.3-74,122.1-100.3c37.6-12.6,81.4-22.5,130.1-29.4C309,12.6,362.5,9,417.7,9c55.1,0,108.6,3.6,159,10.8
		c48.7,6.9,92.5,16.8,130.1,29.4c78.7,26.4,122.1,62,122.1,100.3s-43.3,74-122.1,100.3c-37.6,12.6-81.4,22.5-130.1,29.4
		C526.3,286.4,472.8,290,417.7,290z M417.7,17.3c-108.3,0-210,14.1-286.5,39.7c-36.9,12.4-65.8,26.7-86,42.7
		c-20.2,16-30.4,32.7-30.4,49.8s10.2,33.8,30.4,49.8c20.1,15.9,49,30.3,86,42.7c76.5,25.6,178.2,39.7,286.5,39.7
		c108.3,0,210-14.1,286.5-39.7c36.9-12.4,65.8-26.7,86-42.7c20.2-16,30.4-32.7,30.4-49.8s-10.2-33.8-30.4-49.8
		c-20.1-15.9-49-30.3-86-42.7C627.7,31.4,526,17.3,417.7,17.3z"/>
</g>
<g>
	<path class="st2" d="M104.7,143.6l23-15.9c2.9,3.5,5,7.1,6.3,10.9c1.3,3.8,1.9,7.6,1.6,11.4c-0.3,3.8-1.5,7.4-3.5,10.8
		c-2.1,3.4-5.1,6.5-9,9.2c-3.6,2.5-7.3,4.2-11.1,5.2c-3.8,1-7.5,1.2-11.1,0.6c-3.6-0.5-7-1.8-10.2-3.9c-3.2-2-6-4.8-8.5-8.4
		c-2.4-3.5-4-7.2-4.7-10.9c-0.7-3.7-0.5-7.3,0.4-10.9c0.9-3.6,2.5-6.9,4.9-10.1c2.3-3.2,5.3-6,8.9-8.5c3.3-2.3,6.5-3.8,9.8-4.6
		c3.2-0.8,6.3-1,9.4-0.7c3,0.3,6,1,8.8,2l-8.7,14.4c-1.7-0.8-3.5-1.4-5.4-1.6c-1.9-0.2-3.9,0.4-5.9,1.8c-2,1.4-3.6,3.1-4.7,5.1
		c-1.1,2-1.6,4.2-1.4,6.6c0.2,2.4,1.1,4.9,2.9,7.4c1.7,2.5,3.7,4.4,5.9,5.5c2.2,1.2,4.4,1.7,6.7,1.4c2.3-0.2,4.6-1.1,6.8-2.6
		c1.2-0.9,2.3-1.7,3.1-2.7c0.8-0.9,1.4-1.9,1.8-2.8c0.4-0.9,0.7-1.9,0.7-3c0.1-1,0-2.1-0.1-3.1l-9.8,6.7L104.7,143.6z"/>
	<path class="st2" d="M150.6,95.2l18.3,49.2l-15.5,5.7l-18.3-49.2L150.6,95.2z M145.1,97.2l10.8-4c4.8-1.8,9-2.5,12.6-2.2
		c3.6,0.3,6.5,1.5,8.9,3.5c2.4,2,4.2,4.6,5.4,7.9c1.2,3.2,1.6,6.4,1.1,9.5c-0.5,3.1-2,5.9-4.5,8.5c-2.5,2.6-6.1,4.8-11,6.6l-10.8,4
		l-4.3-11.6l9.4-3.5c1.3-0.5,2.3-1.1,3-1.7c0.7-0.7,1.2-1.4,1.3-2.3c0.2-0.9,0.1-1.8-0.2-2.7c-0.4-1-0.9-1.7-1.6-2.2
		c-0.7-0.5-1.5-0.8-2.5-0.8s-2.1,0.2-3.4,0.7l-9.4,3.5L145.1,97.2z M175.8,117.9l21.9,15.9l-17.9,6.7L160,123.7L175.8,117.9z"/>
	<path class="st2" d="M208.3,77.2l13.4,50.8l-16.3,4.3L192,81.6L208.3,77.2z"/>
	<path class="st2" d="M240.9,70.1l7.5,37.9l21-4.1l2.7,13.6l-37.2,7.3l-10.2-51.5L240.9,70.1z"/>
	<path class="st2" d="M289.6,62.1l5.1,38.3l21.2-2.8l1.8,13.8l-37.6,5l-6.9-52.1L289.6,62.1z"/>
	<path class="st2" d="M320.2,73.1c1.3-3.5,3.1-6.6,5.6-9.2c2.5-2.6,5.4-4.7,8.9-6.3c3.5-1.5,7.2-2.5,11.3-2.7
		c4.2-0.3,8.1,0.1,11.7,1.1c3.6,1,6.9,2.7,9.7,5c2.8,2.3,5.1,5,6.8,8.3c1.7,3.3,2.7,7,3,11.2c0.3,4.2-0.1,8.1-1.3,11.6
		c-1.2,3.6-3,6.7-5.4,9.4c-2.4,2.7-5.4,4.9-8.8,6.5c-3.5,1.6-7.4,2.6-11.6,2.9c-4.3,0.3-8.3-0.1-11.9-1.2c-3.7-1.1-6.9-2.9-9.7-5.2
		c-2.8-2.4-5-5.2-6.7-8.6c-1.7-3.4-2.6-7.1-2.9-11.3C318.5,80.5,319,76.6,320.2,73.1z M329,38.9c1.5-1.5,3.3-2.3,5.6-2.4
		c2.2-0.2,4.2,0.4,5.9,1.6c1.7,1.2,2.6,3,2.7,5.1c0.2,2.2-0.5,4-2,5.5c-1.5,1.5-3.3,2.3-5.6,2.4c-2.2,0.2-4.2-0.4-5.9-1.6
		c-1.7-1.2-2.6-3-2.7-5.1C326.9,42.2,327.5,40.3,329,38.9z M338.1,90.1c1.1,1.9,2.5,3.3,4.4,4.2c1.8,1,4,1.3,6.4,1.2
		c2.4-0.2,4.5-0.9,6.2-2.1c1.7-1.2,2.9-2.8,3.7-4.8c0.8-2,1.1-4.3,0.9-6.8c-0.2-2.6-0.8-4.8-1.8-6.7c-1-1.9-2.4-3.3-4.2-4.2
		c-1.8-1-4-1.3-6.6-1.2c-2.4,0.2-4.5,0.9-6.2,2.1c-1.7,1.2-2.9,2.8-3.7,4.8c-0.8,2-1.1,4.3-0.9,6.9C336.4,86,337,88.2,338.1,90.1z
		 M349.2,37.5c1.5-1.5,3.3-2.3,5.6-2.4c2.2-0.2,4.2,0.4,5.9,1.6c1.7,1.2,2.6,3,2.7,5.1c0.2,2.2-0.5,4-2,5.5
		c-1.5,1.5-3.3,2.3-5.6,2.4c-2.2,0.2-4.2-0.4-5.9-1.6c-1.7-1.2-2.6-3-2.7-5.1C347.1,40.8,347.7,38.9,349.2,37.5z"/>
	<path class="st2" d="M421,53.9l19.5-0.1l-29.3,56.5l-30-56.1l19.5-0.1l10.3,25.6L421,53.9z"/>
	<path class="st2" d="M467.1,55.1l-2.7,52.4l-15.7-0.8l2.7-52.4L467.1,55.1z M460.8,94.2l26.4,1.3l-0.7,13.1l-26.4-1.3L460.8,94.2z
		 M461.8,74l24.9,1.3L486.1,88l-24.9-1.3L461.8,74z M462.8,54.9l26.4,1.3l-0.7,13.1L462.1,68L462.8,54.9z"/>
	<path class="st2" d="M521.4,59.2l-5.7,52.2l-16.4-1.8l5.7-52.2L521.4,59.2z M515.6,58.6l11.4,1.2c5.1,0.6,9.2,1.8,12.2,3.7
		c3,1.9,5.2,4.3,6.4,7.1c1.2,2.9,1.6,6,1.3,9.5c-0.4,3.4-1.5,6.4-3.3,9c-1.8,2.5-4.4,4.4-7.8,5.6c-3.4,1.2-7.6,1.5-12.7,0.9
		l-11.4-1.2l1.3-12.3l9.9,1.1c1.4,0.2,2.6,0.1,3.5-0.2c0.9-0.3,1.7-0.8,2.2-1.5c0.6-0.7,0.9-1.5,1-2.5c0.1-1,0-2-0.4-2.7
		c-0.4-0.8-1-1.4-1.9-1.9c-0.9-0.5-2-0.8-3.4-0.9l-9.9-1.1L515.6,58.6z M533.8,90.7l12.5,24l-19-2.1l-10.2-23.8L533.8,90.7z"/>
	<path class="st2" d="M568.4,103c1.1,1.5,2.3,2.7,3.7,3.6c1.4,0.9,2.8,1.5,4.4,1.8c1.3,0.2,2.4,0.2,3.4-0.2c1-0.4,1.6-1.1,1.8-2.2
		c0.1-0.7,0-1.3-0.4-1.9c-0.4-0.6-1.2-1.3-2.5-2.2c-1.3-0.9-3.2-2.1-5.8-3.7c-1.1-0.7-2.4-1.6-3.9-2.8c-1.4-1.1-2.8-2.5-4-4.1
		c-1.2-1.6-2.1-3.4-2.7-5.5c-0.6-2.1-0.7-4.4-0.2-7.1c0.6-3.4,2-6.1,4.3-8.1c2.2-2,5-3.3,8.2-3.9c3.2-0.6,6.6-0.6,10.2,0
		c3.9,0.7,7.1,1.9,9.7,3.6c2.6,1.7,4.6,3.6,6.1,5.7c1.5,2.1,2.5,4.1,3.1,6.1l-13.2,4.5c-0.6-1.4-1.3-2.5-2.1-3.4
		c-0.8-0.9-1.7-1.6-2.6-2.1c-0.9-0.5-1.9-0.9-2.8-1c-1.1-0.2-2.1-0.2-2.9,0.1c-0.8,0.3-1.3,0.8-1.4,1.7c-0.2,1,0.2,2,1.1,2.8
		c0.9,0.8,2.1,1.7,3.7,2.6c1.6,0.9,3.3,1.9,5.2,3c1.9,1.1,3.6,2.3,5.1,3.6c1.4,1.3,2.6,2.7,3.5,4.3c0.9,1.5,1.5,3.2,1.8,4.9
		c0.3,1.8,0.3,3.6-0.1,5.7c-0.5,2.9-1.6,5.3-3.1,7.2c-1.6,2-3.5,3.5-5.7,4.6c-2.3,1.1-4.7,1.7-7.3,2c-2.6,0.3-5.3,0.2-8-0.3
		c-3.7-0.7-7-1.9-10-3.7c-3-1.8-5.4-3.9-7.3-6.5c-1.9-2.5-3.3-5.2-4-8l12.4-6C566.5,99.8,567.4,101.5,568.4,103z"/>
	<path class="st2" d="M615.1,74L660,86.1l-3.8,14.1l-14.5-3.9l-9.8,36.6l-15.9-4.3l9.8-36.6l-14.5-3.9L615.1,74z"/>
	<path class="st2" d="M687.6,96.3l-19.5,48.7l-14.6-5.9L673,90.5L687.6,96.3z M668.9,131.3l24.6,9.9l-4.9,12.2l-24.6-9.9
		L668.9,131.3z M676.5,112.5l23.2,9.3l-4.7,11.8l-23.2-9.3L676.5,112.5z M683.6,94.7l24.6,9.9l-4.9,12.2l-24.6-9.9L683.6,94.7z"/>
	<path class="st2" d="M770,144.6l-33,44.2l-11.5-41.6l-14.2,19l-12.6-9.4l33-44.2l11.5,41.6l14.2-19L770,144.6z"/>
</g>
<g>
	<g>
		<path class="st3" d="M459.4,195.3l-39.6-35.2l-42,35.2v46.4c0,0-0.1,2.5,2.4,2.5c3.1,0,28.7,0,28.7,0l0.6,0l18.8-0.1h28.1
			c3.2,0,3-3.2,3-3.2V195.3z"/>
	</g>
	<g>
		<path class="st3" d="M420.2,143.3l-57.9,51c0,0,3.6,6.6,11.4,0l46.5-39.3l43.6,39.1c9,6.5,12.4,0,12.4,0L420.2,143.3z"/>
	</g>
	<g>
		<polygon class="st3" points="462.7,177.9 462.7,154.8 451.5,154.8 451.6,168.5 		"/>
	</g>
</g>
<g>
	<g>
		<g>
			<path class="st0" d="M432.9,189.7L432.9,189.7C432.9,189.7,432.8,189.7,432.9,189.7c-0.1,0-0.1,0-0.2,0c-0.1,0-0.2,0-0.3,0.1
				c0,0,0,0,0,0c-0.2,0-0.4,0.1-0.5,0.2c-2.4,1.1-6.4,6.8-7.9,18.7c-0.5,3.9-0.3,7.1-0.1,9.4c0.3,2.2,1.5,4.1,3.3,5.3
				c0.9,0.6,1.4,1.6,1.3,2.7l-0.9,13.5c-0.1,2.2,1.8,4,4.1,3.7c1.7-0.3,2.9-1.8,2.9-3.6v-48.1C434.6,190.6,433.8,189.8,432.9,189.7z
				"/>
		</g>
		<g>
			<path class="st0" d="M418.6,189.7c-0.8,0-1.4,0.6-1.4,1.4v10.6c0,0.9-0.7,1.6-1.6,1.6c-0.9,0-1.6-0.7-1.6-1.6v-10.3
				c0-0.9-0.8-1.7-1.7-1.7c-0.9,0-1.7,0.8-1.7,1.7v10.3c0,0.9-0.7,1.6-1.6,1.6s-1.6-0.7-1.6-1.6v-10.6c0-0.8-0.6-1.4-1.4-1.4
				c-0.7,0-1.3,0.6-1.4,1.3l-0.6,12.7c-0.1,2.6,1,5.2,3,6.9l0,0c2.2,1.9,3.3,4.7,2.9,7.5c-1.1,8.5-1.8,19.5-1.8,20.9
				c0,2.3,1.9,4.2,4.2,4.2c2.3,0,4.2-1.9,4.2-4.2c0-1.4-0.7-12.4-1.8-20.9c-0.4-2.9,0.8-5.7,3-7.5c2-1.7,3.1-4.3,3-6.9L420,191
				C420,190.3,419.4,189.7,418.6,189.7z"/>
		</g>
	</g>
</g>
</svg>
